<svg width="70" height="56" viewBox="0 0 70 56" fill="none" xmlns="http://www.w3.org/2000/svg">
<path d="M43.75 43.5055H37.9609V24.5758C37.9609 24.2321 37.6797 23.9508 37.3359 23.9508H32.6484C32.3047 23.9508 32.0234 24.2321 32.0234 24.5758V43.5055H26.25C25.7265 43.5055 25.4375 44.1071 25.7578 44.5133L34.5078 55.5836C34.5663 55.6583 34.641 55.7187 34.7262 55.7603C34.8115 55.8018 34.9051 55.8234 35 55.8234C35.0948 55.8234 35.1885 55.8018 35.2737 55.7603C35.359 55.7187 35.4337 55.6583 35.4922 55.5836L44.2422 44.5133C44.5625 44.1071 44.2734 43.5055 43.75 43.5055V43.5055Z" fill="#ED4C5C"/>
<path d="M58.3906 16.9742C54.8125 7.53674 45.6953 0.825806 35.0156 0.825806C24.3359 0.825806 15.2187 7.52893 11.6406 16.9664C4.94531 18.7242 0 24.8258 0 32.0758C0 40.7086 6.99219 47.7008 15.6172 47.7008H18.75C19.0938 47.7008 19.375 47.4196 19.375 47.0758V42.3883C19.375 42.0446 19.0938 41.7633 18.75 41.7633H15.6172C12.9844 41.7633 10.5078 40.7164 8.66406 38.818C6.82812 36.9274 5.85156 34.3805 5.9375 31.7399C6.00781 29.6774 6.71094 27.7399 7.98437 26.1071C9.28906 24.443 11.1172 23.2321 13.1484 22.693L16.1094 21.9196L17.1953 19.0602C17.8672 17.2789 18.8047 15.6149 19.9844 14.1071C21.149 12.6126 22.5286 11.2989 24.0781 10.2086C27.2891 7.95081 31.0703 6.75549 35.0156 6.75549C38.9609 6.75549 42.7422 7.95081 45.9531 10.2086C47.5078 11.3024 48.8828 12.6149 50.0469 14.1071C51.2266 15.6149 52.1641 17.2867 52.8359 19.0602L53.9141 21.9117L56.8672 22.693C61.1016 23.8336 64.0625 27.6852 64.0625 32.0758C64.0625 34.6617 63.0547 37.0992 61.2266 38.9274C60.33 39.8291 59.2635 40.5441 58.0888 41.0309C56.914 41.5177 55.6544 41.7666 54.3828 41.7633H51.25C50.9062 41.7633 50.625 42.0446 50.625 42.3883V47.0758C50.625 47.4196 50.9062 47.7008 51.25 47.7008H54.3828C63.0078 47.7008 70 40.7086 70 32.0758C70 24.8336 65.0703 18.7399 58.3906 16.9742Z" fill="#ED4C5C"/>
</svg>
